# xmcd
#
# Track frame offsets:
# 150
# 18574
# 42157
# 53577
# 67905
# 89680
# 110817
# 131360
# 147735
# 167173
# 180075
# 197320
# 217313
# 236245
# 260834
# 298421
# 312284
#
# Disc length: 4355 seconds
#
# Revision: 0
# Processed by: cddbd v1.4PL0 Copyright (c) Steve Scherf et al.
# Submitted via: Audion 3.0.2 (http://www.panic.com/audion/)
#
DISCID=0a110111
DTITLE=muytyrt - shapoopie
DYEAR=1900
DGENRE=
TTITLE0=1
TTITLE1=23
TTITLE2=3
TTITLE3=45
TTITLE4=5
TTITLE5=6
TTITLE6=7
TTITLE7=8
TTITLE8=8
TTITLE9=888
TTITLE10=888888
TTITLE11=8888
TTITLE12=88888
TTITLE13=888888888
TTITLE14=888797
TTITLE15=790890
TTITLE16=797966997
EXTD=
EXTT0=
EXTT1=
EXTT2=
EXTT3=
EXTT4=
EXTT5=
EXTT6=
EXTT7=
EXTT8=
EXTT9=
EXTT10=
EXTT11=
EXTT12=
EXTT13=
EXTT14=
EXTT15=
EXTT16=
PLAYORDER=
